<svg width="26" height="22" viewBox="0 0 26 22" fill="none" xmlns="http://www.w3.org/2000/svg">
<path d="M22.5766 2.99417C22.0233 2.44059 21.3663 2.00145 20.6433 1.70184C19.9202 1.40223 19.1452 1.24802 18.3625 1.24802C17.5798 1.24802 16.8047 1.40223 16.0817 1.70184C15.3586 2.00145 14.7016 2.44059 14.1483 2.99417L13 4.1425L11.8516 2.99417C10.734 1.8765 9.21809 1.2486 7.63747 1.2486C6.05685 1.2486 4.54097 1.8765 3.4233 2.99417C2.30563 4.11183 1.67773 5.62772 1.67773 7.20833C1.67773 8.78895 2.30563 10.3048 3.4233 11.4225L4.57163 12.5708L13 20.9992L21.4283 12.5708L22.5766 11.4225C23.1302 10.8692 23.5693 10.2122 23.869 9.48914C24.1686 8.76606 24.3228 7.99103 24.3228 7.20833C24.3228 6.42564 24.1686 5.65061 23.869 4.92753C23.5693 4.20445 23.1302 3.54749 22.5766 2.99417Z" fill="#54BE96" stroke="#54BE96" stroke-width="2" stroke-linecap="round" stroke-linejoin="round"/>
</svg>
